<svg width="58" height="58" viewBox="0 0 58 58" fill="none" xmlns="http://www.w3.org/2000/svg">
<g clip-path="url(#clip0_246_1386)">
<path d="M45.202 37.844L37.3439 29.9859H37.3082C34.2364 33.0577 29.2357 33.0577 26.1639 29.9859H26.1282L21.4848 34.6293C21.199 34.9151 20.8597 35.0937 20.5025 35.183C19.806 35.3616 18.7523 34.9151 18.1986 34.3614L16.1984 32.3612C14.091 30.2538 14.091 26.8605 16.1984 24.7531L18.4487 22.5028C19.2881 21.6634 20.6454 21.6634 21.4848 22.5028L27.5212 28.5393C29.8608 30.8789 33.647 30.8789 35.9687 28.5393L45.1306 19.3774C49.8276 14.6804 49.6669 7.14375 44.6662 2.7682C42.5231 0.928688 39.8621 0 37.201 0C34.3078 0 31.4146 1.10728 29.2 3.30398L11.9479 20.574C7.53659 24.9853 7.53659 32.1469 11.9479 36.5581L29.2179 53.8282C31.4324 56.0427 34.3257 57.1321 37.2189 57.1321C40.1121 57.1321 43.0053 56.0249 45.2199 53.8282C49.6311 49.4169 49.6311 42.2553 45.2199 37.844H45.202ZM33.4148 7.5188C35.5044 5.42925 38.8977 5.42925 40.9872 7.5188C43.0767 9.60834 43.0767 13.0016 40.9872 15.0912L33.2184 22.86C32.3968 23.6815 31.0395 23.6815 30.218 22.86L25.646 18.288C24.8245 17.4665 24.8245 16.1092 25.646 15.2876L33.4148 7.5188ZM33.4148 49.6312L25.646 41.8624C24.8245 41.0408 24.8245 39.6835 25.646 38.862L30.218 34.29C31.0395 33.4685 32.3968 33.4685 33.2184 34.29L40.9872 42.0588C43.0767 44.1484 43.0767 47.5417 40.9872 49.6312C38.8977 51.7208 35.5044 51.7208 33.4148 49.6312Z" fill="url(#paint0_linear_246_1386)"/>
</g>
<defs>
<linearGradient id="paint0_linear_246_1386" x1="9.4654" y1="33.9685" x2="51.56" y2="25.7889" gradientUnits="userSpaceOnUse">
<stop stop-color="#333EFF"/>
<stop offset="1" stop-color="#5BCAFF"/>
</linearGradient>
<clipPath id="clip0_246_1386">
<rect width="57.15" height="57.15" fill="white"/>
</clipPath>
</defs>
</svg>
